<?xml version="1.0" encoding="UTF-8"?>
<svg xmlns="http://www.w3.org/2000/svg" xmlns:xlink="http://www.w3.org/1999/xlink" viewBox="0 0 64 64" width="64px" height="64px">
<g id="surface28291931">
<path style=" stroke:none;fill-rule:nonzero;fill:rgb(41.176471%,41.176471%,41.176471%);fill-opacity:1;" d="M 55 10 L 9 10 C 6.789062 10 5 11.789062 5 14 L 5 48 C 5 50.210938 6.789062 52 9 52 L 55 52 C 57.210938 52 59 50.210938 59 48 L 59 14 C 59 11.789062 57.210938 10 55 10 Z M 55 45.738281 C 54.953125 47 53.902344 48 52.617188 48 L 49.5 48 L 51 21 L 32 33 L 13 22 L 14.5 48 L 11.382812 48 C 10.097656 48 9.046875 47 9 45.738281 L 9 16.289062 C 9 15.039062 10.03125 14.027344 11.300781 14.027344 L 12.5 14.027344 L 32 29 L 51.5 14.027344 L 52.699219 14.027344 C 53.96875 14.027344 55 15.039062 55 16.289062 Z M 55 45.738281 "/>
</g>
</svg>
