<?xml version="1.0" encoding="UTF-8"?>
<svg xmlns="http://www.w3.org/2000/svg" xmlns:xlink="http://www.w3.org/1999/xlink" viewBox="0 0 48 48" width="48px" height="48px">
<g id="surface28273324">
<path style=" stroke:none;fill-rule:nonzero;fill:rgb(41.176471%,41.176471%,41.176471%);fill-opacity:1;" d="M 38.292969 6.996094 C 38.140625 6.996094 37.980469 7.007812 37.824219 7.027344 C 34.285156 7.5 31.621094 9.347656 29.632812 11.425781 C 27.910156 11.15625 26.042969 11 24 11 C 21.679688 11 19.59375 11.203125 17.683594 11.550781 C 15.6875 9.429688 12.714844 7.511719 9.101562 7.03125 C 8.949219 7.007812 8.796875 7 8.644531 7 C 7.148438 7 5.777344 7.980469 5.398438 9.46875 C 4.546875 12.816406 5.191406 15.957031 6.082031 18.339844 C 3.996094 21.101562 3 24.5 3 28.238281 C 3 34.988281 8 43 20 43 L 28 43 C 39 43 45 35.621094 45 28.238281 C 45 24.179688 43.835938 20.511719 41.363281 17.636719 C 42.089844 15.378906 42.296875 12.460938 41.527344 9.4375 C 41.148438 7.953125 39.785156 6.996094 38.292969 6.996094 Z M 15.226562 22 C 17.292969 22 20.386719 23 24 23 C 27.597656 23 30.710938 22 32.773438 22 C 36.902344 22 40 25 40 30 C 40 36 33.835938 40 26.582031 40 C 25.546875 40 22.742188 39.992188 21.417969 40 C 13.230469 40.054688 8 36 8 30 C 8 25 11.097656 22 15.226562 22 Z M 16.5 28 C 15.121094 28 14 29.34375 14 31 C 14 32.65625 15.121094 34 16.5 34 C 17.878906 34 19 32.65625 19 31 C 19 29.34375 17.878906 28 16.5 28 Z M 31.5 28 C 30.121094 28 29 29.34375 29 31 C 29 32.65625 30.121094 34 31.5 34 C 32.878906 34 34 32.65625 34 31 C 34 29.34375 32.878906 28 31.5 28 Z M 31.5 28 "/>
</g>
</svg>
